<?xml version="1.0" encoding="UTF-8" standalone="no"?>
<!DOCTYPE svg PUBLIC "-//W3C//DTD SVG 1.1//EN" "http://www.w3.org/Graphics/SVG/1.1/DTD/svg11.dtd">
<svg version="1.1" xmlns="http://www.w3.org/2000/svg" xmlns:xlink="http://www.w3.org/1999/xlink" preserveAspectRatio="xMidYMid meet" viewBox="0 0 640 640" width="640" height="640"><defs><path d="M173.89 44.33L174.57 44.41L175.24 44.52L175.9 44.66L176.56 44.84L177.21 45.06L177.84 45.3L178.47 45.58L179.08 45.89L179.67 46.23L180.24 46.61L180.8 47.01L181.33 47.45L181.85 47.91L182.34 48.41L182.8 48.93L183.24 49.49L183.65 50.07L184.03 50.69L184.38 51.33L184.7 52L184.98 52.69L185.23 53.41L185.43 54.16L306.86 542.39L307.05 543.12L307.28 543.83L307.53 544.53L307.81 545.21L308.11 545.87L308.43 546.52L308.78 547.16L309.16 547.77L309.55 548.37L309.97 548.95L310.41 549.51L310.87 550.05L311.35 550.57L311.84 551.07L312.36 551.55L312.89 552.01L313.44 552.45L314.01 552.87L314.59 553.26L315.18 553.63L315.79 553.98L316.41 554.31L317.05 554.61L317.69 554.89L318.35 555.14L319.02 555.37L319.69 555.57L320.38 555.75L321.07 555.9L321.77 556.02L322.48 556.12L323.19 556.18L323.91 556.22L324.63 556.24L325.36 556.22L326.09 556.17L326.82 556.09L327.55 555.99L328.29 555.85L329.02 555.68L550 500L540 456.62L366.73 513.94L354.29 435.62L353.76 431.79L353.4 427.98L353.19 424.19L353.14 420.42L353.25 416.68L353.5 412.97L353.91 409.3L354.46 405.66L355.15 402.06L355.98 398.51L356.96 395.01L358.06 391.55L359.3 388.16L360.67 384.82L362.17 381.54L363.79 378.33L365.54 375.19L367.4 372.12L369.38 369.13L371.48 366.21L373.68 363.39L376 360.64L378.42 357.99L380.94 355.44L383.57 352.98L386.29 350.62L389.11 348.37L392.02 346.22L395.02 344.19L398.11 342.27L401.29 340.47L404.55 338.79L407.88 337.24L411.3 335.82L414.79 334.53L418.35 333.38L421.98 332.37L425.67 331.5L429.43 330.78L433.25 330.21L437.25 329.7L441.17 329.2L445.01 328.72L448.78 328.25L452.47 327.79L456.08 327.35L459.62 326.91L463.09 326.5L466.47 326.09L469.78 325.7L473.02 325.32L476.18 324.95L479.26 324.6L482.27 324.26L485.2 323.93L488.06 323.62L490.84 323.32L493.54 323.03L496.17 322.75L498.72 322.49L501.19 322.24L503.59 322.01L505.92 321.78L508.16 321.57L510.34 321.38L512.43 321.19L514.45 321.02L516.39 320.87L518.26 320.72L520.05 320.59L521.77 320.47L523.41 320.37L524.97 320.28L526.46 320.2L527.87 320.13L529.21 320.08L530.47 320.04L531.65 320.01L532.76 320L533.79 320L534.76 320.12L535.75 320.46L536.76 321.03L537.79 321.82L538.85 322.83L539.93 324.07L541.03 325.54L542.15 327.22L543.3 329.14L544.47 331.27L545.66 333.63L546.87 336.22L548.11 339.03L549.36 342.06L550.64 345.32L551.94 348.8L553.27 352.51L554.61 356.44L555.98 360.59L557.37 364.97L558.79 369.57L560.22 374.4L561.68 379.45L563.16 384.73L564.66 390.23L566.19 395.95L567.73 401.9L569.3 408.07L570.89 414.47L572.51 421.09L574.14 427.94L575.8 435.01L577.48 442.3L579.19 449.82L580.91 457.56L582.66 465.53L584.43 473.72L586.22 482.14L588.03 490.78L589.87 499.64L590.17 501.26L590.4 502.89L590.57 504.5L590.67 506.11L590.7 507.72L590.68 509.31L590.58 510.89L590.43 512.46L590.22 514.02L589.94 515.56L589.61 517.08L589.22 518.59L588.77 520.07L588.27 521.54L587.71 522.98L587.1 524.39L586.43 525.78L585.71 527.15L584.94 528.48L584.13 529.78L583.26 531.06L582.34 532.29L581.38 533.5L580.37 534.66L579.32 535.79L578.22 536.88L577.08 537.93L575.9 538.93L574.68 539.89L573.41 540.81L572.11 541.67L570.77 542.49L569.39 543.26L567.98 543.98L566.53 544.64L565.05 545.25L563.53 545.8L561.99 546.3L560.41 546.74L558.8 547.11L312.51 599.25L311.29 599.48L310.06 599.67L308.84 599.8L307.63 599.89L306.41 599.93L305.21 599.92L304.01 599.86L302.82 599.76L301.64 599.61L300.47 599.42L299.31 599.19L298.17 598.91L297.04 598.59L295.92 598.23L294.82 597.82L293.74 597.38L292.68 596.89L291.63 596.37L290.61 595.81L289.61 595.21L288.63 594.58L287.68 593.9L286.75 593.2L285.85 592.45L284.97 591.68L284.12 590.87L283.31 590.03L282.52 589.15L281.77 588.25L281.05 587.31L280.36 586.34L279.71 585.35L279.1 584.32L278.52 583.27L277.98 582.19L277.48 581.09L277.02 579.96L276.61 578.8L276.23 577.62L275.91 576.42L169.46 153.92L169.16 152.88L168.81 151.87L168.41 150.91L167.95 149.99L167.45 149.12L166.9 148.29L166.32 147.5L165.69 146.76L165.02 146.06L164.32 145.41L163.59 144.81L162.82 144.25L162.03 143.73L161.21 143.27L160.37 142.85L159.51 142.48L158.63 142.16L157.74 141.88L156.83 141.66L155.91 141.49L154.99 141.36L154.06 141.29L153.12 141.26L152.19 141.29L151.25 141.37L150.32 141.5L149.4 141.68L148.49 141.91L147.58 142.2L146.69 142.54L145.82 142.94L144.97 143.39L144.14 143.89L143.33 144.45L142.55 145.06L141.8 145.74L141.07 146.46L140.39 147.24L139.73 148.09L139.12 148.98L103.3 204.92L80 142.49L163.06 48.68L163.59 48.11L164.14 47.58L164.72 47.1L165.31 46.65L165.91 46.24L166.53 45.88L167.17 45.55L167.81 45.26L168.47 45.01L169.13 44.79L169.8 44.62L170.48 44.48L171.16 44.38L171.84 44.31L172.52 44.28L173.21 44.29L173.89 44.33ZM415.75 383.31L413.66 383.52L411.6 383.82L409.56 384.19L407.55 384.65L405.58 385.18L403.63 385.78L401.72 386.46L399.84 387.21L398 388.04L396.2 388.93L394.43 389.88L392.71 390.91L391.04 391.99L389.41 393.14L387.82 394.35L386.29 395.62L384.8 396.94L383.37 398.32L381.99 399.76L380.66 401.24L379.39 402.78L378.19 404.36L377.04 405.99L375.95 407.67L374.93 409.39L373.97 411.15L373.08 412.95L372.26 414.8L371.51 416.67L370.83 418.59L370.22 420.53L369.69 422.51L369.24 424.52L368.86 426.56L368.57 428.62L368.35 430.71L368.23 432.82L368.18 434.96L368.23 437.09L368.35 439.2L368.57 441.29L368.86 443.36L369.24 445.39L369.69 447.4L370.22 449.38L370.83 451.33L371.51 453.24L372.26 455.12L373.08 456.96L373.97 458.76L374.93 460.52L375.95 462.24L377.04 463.92L378.19 465.55L379.39 467.14L380.66 468.67L381.99 470.16L383.37 471.59L384.8 472.97L386.29 474.29L387.82 475.56L389.41 476.77L391.04 477.92L392.71 479.01L394.43 480.03L396.2 480.99L398 481.88L399.84 482.7L401.72 483.45L403.63 484.13L405.58 484.74L407.55 485.27L409.56 485.72L411.6 486.1L413.66 486.39L415.75 486.6L417.87 486.73L420 486.77L422.13 486.73L424.25 486.6L426.34 486.39L428.4 486.1L430.44 485.72L432.45 485.27L434.42 484.74L436.37 484.13L438.28 483.45L440.16 482.7L442 481.88L443.8 480.99L445.57 480.03L447.29 479.01L448.96 477.92L450.59 476.77L452.18 475.56L453.71 474.29L455.2 472.97L456.63 471.59L458.01 470.16L459.34 468.67L460.61 467.14L461.81 465.55L462.96 463.92L464.05 462.24L465.07 460.52L466.03 458.76L466.92 456.96L467.74 455.12L468.49 453.24L469.17 451.33L469.78 449.38L470.31 447.4L470.76 445.39L471.14 443.36L471.43 441.29L471.65 439.2L471.77 437.09L471.82 434.96L471.77 432.82L471.65 430.71L471.43 428.62L471.14 426.56L470.76 424.52L470.31 422.51L469.78 420.53L469.17 418.59L468.49 416.67L467.74 414.8L466.92 412.95L466.03 411.15L465.07 409.39L464.05 407.67L462.96 405.99L461.81 404.36L460.61 402.78L459.34 401.24L458.01 399.76L456.63 398.32L455.2 396.94L453.71 395.62L452.18 394.35L450.59 393.14L448.96 391.99L447.29 390.91L445.57 389.88L443.8 388.93L442 388.04L440.16 387.21L438.28 386.46L436.37 385.78L434.42 385.18L432.45 384.65L430.44 384.19L428.4 383.82L426.34 383.52L424.25 383.31L422.13 383.18L420 383.14L417.87 383.18L415.75 383.31Z" id="aMoSRkUs"></path><mask id="maskc4a70bnBkm" x="74" y="38.28" width="522.7" height="567.64" maskUnits="userSpaceOnUse"><rect x="74" y="38.28" width="522.7" height="567.64" fill="white"></rect><use xlink:href="#aMoSRkUs" opacity="1" fill="black"></use></mask><path d="M307.84 33.65L309.06 33.79L310.29 33.97L311.51 34.21L557.8 86.35L559.41 86.72L560.99 87.16L562.53 87.65L564.05 88.2L565.53 88.81L566.98 89.48L568.39 90.19L569.77 90.96L571.11 91.78L572.41 92.65L573.68 93.56L574.9 94.52L576.08 95.53L577.22 96.58L578.32 97.67L579.37 98.79L580.38 99.96L581.34 101.16L582.26 102.4L583.13 103.67L583.94 104.98L584.71 106.31L585.43 107.67L586.1 109.06L586.71 110.48L587.27 111.92L587.77 113.38L588.22 114.87L588.61 116.38L588.94 117.9L589.22 119.44L589.43 121L589.58 122.57L589.68 124.15L589.7 125.74L589.67 127.34L589.57 128.95L589.4 130.57L589.17 132.19L588.87 133.82L587.03 142.68L585.22 151.32L583.43 159.74L581.66 167.93L579.91 175.89L578.19 183.64L576.48 191.15L574.8 198.45L573.14 205.52L571.51 212.36L569.89 218.98L568.3 225.38L566.73 231.55L565.19 237.5L563.66 243.23L562.16 248.73L560.68 254L559.22 259.06L557.79 263.88L556.37 268.49L554.98 272.86L553.61 277.02L552.27 280.95L550.94 284.66L549.64 288.14L548.36 291.4L547.11 294.43L545.87 297.24L544.66 299.82L543.47 302.18L542.3 304.32L541.15 306.23L540.03 307.92L538.93 309.38L537.85 310.62L536.79 311.64L535.76 312.43L534.75 313L533.76 313.34L532.79 313.46L531.76 313.46L530.65 313.44L529.47 313.42L528.21 313.38L526.87 313.32L525.46 313.26L523.97 313.18L522.41 313.09L520.77 312.98L519.05 312.87L517.26 312.73L515.39 312.59L513.45 312.43L511.43 312.26L509.34 312.08L507.16 311.88L504.92 311.67L502.59 311.45L500.19 311.21L497.72 310.97L495.17 310.7L492.54 310.43L489.84 310.14L487.06 309.84L484.2 309.53L481.27 309.2L478.26 308.86L475.18 308.5L472.02 308.14L468.78 307.76L465.47 307.37L462.09 306.96L458.62 306.54L455.08 306.11L451.47 305.66L447.78 305.21L444.01 304.74L440.17 304.25L436.25 303.75L432.25 303.24L428.43 302.67L424.67 301.95L420.98 301.08L417.35 300.07L413.79 298.92L410.3 297.63L406.88 296.21L403.55 294.66L400.29 292.99L397.11 291.19L394.02 289.27L391.02 287.24L388.11 285.09L385.29 282.84L382.57 280.48L379.94 278.02L377.42 275.46L375 272.81L372.68 270.07L370.48 267.24L368.38 264.33L366.4 261.34L364.54 258.27L362.79 255.13L361.17 251.92L359.67 248.64L358.3 245.3L357.06 241.9L355.96 238.45L354.98 234.95L354.15 231.39L353.46 227.8L352.91 224.16L352.5 220.48L352.25 216.77L352.14 213.03L352.19 209.26L352.4 205.47L352.76 201.66L353.29 197.84L365.73 119.52L539 176.83L549 133.46L328.02 77.78L327.29 77.61L326.55 77.47L325.82 77.36L325.09 77.29L324.36 77.24L323.63 77.22L322.91 77.23L322.19 77.27L321.48 77.34L320.77 77.44L320.07 77.56L319.38 77.71L318.69 77.88L318.02 78.09L317.35 78.31L316.69 78.57L316.05 78.85L315.41 79.15L314.79 79.47L314.18 79.82L313.59 80.2L313.01 80.59L312.44 81.01L311.89 81.45L311.36 81.91L310.84 82.39L310.35 82.89L309.87 83.41L309.41 83.95L308.97 84.51L308.55 85.09L308.16 85.69L307.78 86.3L307.43 86.93L307.11 87.58L306.81 88.25L306.53 88.93L306.28 89.63L306.05 90.34L305.86 91.07L184.43 579.29L184.23 580.04L183.98 580.77L183.7 581.46L183.38 582.13L183.03 582.77L182.65 583.38L182.24 583.97L181.8 584.52L181.34 585.05L180.85 585.54L180.33 586.01L179.8 586.45L179.24 586.85L178.67 587.22L178.08 587.57L177.47 587.88L176.84 588.16L176.21 588.4L175.56 588.61L174.9 588.79L174.24 588.94L173.57 589.05L172.89 589.13L172.21 589.17L171.52 589.17L170.84 589.14L170.16 589.08L169.48 588.98L168.8 588.84L168.13 588.66L167.47 588.45L166.81 588.2L166.17 587.91L165.53 587.58L164.91 587.21L164.31 586.81L163.72 586.36L163.14 585.87L162.59 585.35L162.06 584.78L79 490.96L102.3 428.54L138.12 484.47L138.73 485.37L139.39 486.21L140.07 486.99L140.8 487.72L141.55 488.39L142.33 489.01L143.14 489.56L143.97 490.07L144.82 490.52L145.69 490.91L146.58 491.25L147.49 491.54L148.4 491.78L149.32 491.96L150.25 492.09L151.19 492.17L152.12 492.19L153.06 492.17L153.99 492.1L154.91 491.97L155.83 491.8L156.74 491.57L157.63 491.3L158.51 490.98L159.37 490.61L160.21 490.19L161.03 489.72L161.82 489.21L162.59 488.65L163.32 488.04L164.02 487.39L164.69 486.7L165.32 485.95L165.9 485.17L166.45 484.34L166.95 483.46L167.41 482.54L167.81 481.58L168.16 480.58L168.46 479.53L274.91 57.04L275.23 55.84L275.61 54.66L276.02 53.5L276.48 52.37L276.98 51.26L277.52 50.18L278.1 49.13L278.71 48.11L279.36 47.11L280.05 46.15L280.77 45.21L281.52 44.3L282.31 43.43L283.12 42.59L283.97 41.78L284.85 41L285.75 40.26L286.68 39.55L287.63 38.88L288.61 38.24L289.61 37.65L290.63 37.09L291.68 36.56L292.74 36.08L293.82 35.63L294.92 35.23L296.04 34.87L297.17 34.55L298.31 34.27L299.47 34.03L300.64 33.84L301.82 33.69L303.01 33.59L304.21 33.54L305.41 33.53L306.63 33.57L307.84 33.65ZM414.75 146.85L412.66 147.07L410.6 147.36L408.56 147.74L406.55 148.19L404.58 148.72L402.63 149.33L400.72 150.01L398.84 150.76L397 151.58L395.2 152.47L393.43 153.43L391.71 154.45L390.04 155.54L388.41 156.69L386.82 157.89L385.29 159.16L383.8 160.49L382.37 161.87L380.99 163.3L379.66 164.79L378.39 166.32L377.19 167.9L376.04 169.54L374.95 171.21L373.93 172.93L372.97 174.69L372.08 176.5L371.26 178.34L370.51 180.22L369.83 182.13L369.22 184.07L368.69 186.05L368.24 188.06L367.86 190.1L367.57 192.16L367.35 194.25L367.23 196.36L367.18 198.5L367.23 200.63L367.35 202.75L367.57 204.84L367.86 206.9L368.24 208.94L368.69 210.95L369.22 212.92L369.83 214.87L370.51 216.78L371.26 218.66L372.08 220.5L372.97 222.3L373.93 224.07L374.95 225.79L376.04 227.46L377.19 229.09L378.39 230.68L379.66 232.21L380.99 233.7L382.37 235.13L383.8 236.51L385.29 237.84L386.82 239.1L388.41 240.31L390.04 241.46L391.71 242.55L393.43 243.57L395.2 244.53L397 245.42L398.84 246.24L400.72 246.99L402.63 247.67L404.58 248.28L406.55 248.81L408.56 249.26L410.6 249.64L412.66 249.93L414.75 250.14L416.87 250.27L419 250.32L421.13 250.27L423.25 250.14L425.34 249.93L427.4 249.64L429.44 249.26L431.45 248.81L433.42 248.28L435.37 247.67L437.28 246.99L439.16 246.24L441 245.42L442.8 244.53L444.57 243.57L446.29 242.55L447.96 241.46L449.59 240.31L451.18 239.1L452.71 237.84L454.2 236.51L455.63 235.13L457.01 233.7L458.34 232.21L459.61 230.68L460.81 229.09L461.96 227.46L463.05 225.79L464.07 224.07L465.03 222.3L465.92 220.5L466.74 218.66L467.49 216.78L468.17 214.87L468.78 212.92L469.31 210.95L469.76 208.94L470.14 206.9L470.43 204.84L470.65 202.75L470.77 200.63L470.82 198.5L470.77 196.36L470.65 194.25L470.43 192.16L470.14 190.1L469.76 188.06L469.31 186.05L468.78 184.07L468.17 182.13L467.49 180.22L466.74 178.34L465.92 176.5L465.03 174.69L464.07 172.93L463.05 171.21L461.96 169.54L460.81 167.9L459.61 166.32L458.34 164.79L457.01 163.3L455.63 161.87L454.2 160.49L452.71 159.16L451.18 157.89L449.59 156.69L447.96 155.54L446.29 154.45L444.57 153.43L442.8 152.47L441 151.58L439.16 150.76L437.28 150.01L435.37 149.33L433.42 148.72L431.45 148.19L429.44 147.74L427.4 147.36L425.34 147.07L423.25 146.85L421.13 146.73L419 146.68L416.87 146.73L414.75 146.85Z" id="a19Me9VcEP"></path><mask id="maskckjGpAQd0" x="73" y="27.53" width="522.7" height="567.64" maskUnits="userSpaceOnUse"><rect x="73" y="27.53" width="522.7" height="567.64" fill="white"></rect><use xlink:href="#a19Me9VcEP" opacity="1" fill="black"></use></mask></defs><g><g><g><use xlink:href="#aMoSRkUs" opacity="1" fill="#4584b6" fill-opacity="1"></use><g mask="url(#maskc4a70bnBkm)"><use xlink:href="#aMoSRkUs" opacity="1" fill-opacity="0" stroke="#646464" stroke-width="6" stroke-opacity="1"></use></g></g><g><use xlink:href="#a19Me9VcEP" opacity="1" fill="#ffde27" fill-opacity="1"></use><g mask="url(#maskckjGpAQd0)"><use xlink:href="#a19Me9VcEP" opacity="1" fill-opacity="0" stroke="#646464" stroke-width="6" stroke-opacity="1"></use></g></g></g></g></svg>