<?xml version="1.0" encoding="UTF-8" standalone="no"?>
<!-- Generator: Adobe Illustrator 12.0.0, SVG Export Plug-In . SVG Version: 6.00 Build 51448)  -->

<svg
   xmlns:dc="http://purl.org/dc/elements/1.1/"
   xmlns:cc="http://creativecommons.org/ns#"
   xmlns:rdf="http://www.w3.org/1999/02/22-rdf-syntax-ns#"
   xmlns:svg="http://www.w3.org/2000/svg"
   xmlns="http://www.w3.org/2000/svg"
   xmlns:sodipodi="http://sodipodi.sourceforge.net/DTD/sodipodi-0.dtd"
   xmlns:inkscape="http://www.inkscape.org/namespaces/inkscape"
   version="1.1"
   id="Layer_1"
   width="733.85376"
   height="371.84125"
   viewBox="0 0 733.85376 371.84125"
   overflow="visible"
   enable-background="new 0 0 640 640"
   xml:space="preserve"
   inkscape:version="0.91 r13725"
   sodipodi:docname="pyfuzzy_logo_with_text.svg"
   style="overflow:visible"><metadata
     id="metadata61"><rdf:RDF><cc:Work
         rdf:about=""><dc:format>image/svg+xml</dc:format><dc:type
           rdf:resource="http://purl.org/dc/dcmitype/StillImage" /><dc:title></dc:title></cc:Work></rdf:RDF></metadata><defs
     id="defs59"><defs
       id="defs33"><filter
         height="277.14301"
         width="255.653"
         y="43.299"
         x="180.55901"
         filterUnits="userSpaceOnUse"
         id="Adobe_OpacityMaskFilter_2_"><feColorMatrix
           id="feColorMatrix36"
           values="1 0 0 0 0  0 1 0 0 0  0 0 1 0 0  0 0 0 1 0"
           type="matrix" /></filter></defs><mask
       id="maskckjGpAQd0"
       height="277.143"
       width="255.653"
       y="43.299"
       x="180.559"
       maskUnits="userSpaceOnUse"><rect
         style="fill:#ffffff;filter:url(#Adobe_OpacityMaskFilter_2_)"
         id="rect39"
         height="276.99799"
         width="255.067"
         y="43.372002"
         x="181.07201" /><g
         id="g41"><path
           inkscape:connector-curvature="0"
           d="m 295.67,46.358 0.595,0.069 0.601,0.087 0.596,0.117 120.185,25.443 0.786,0.181 0.771,0.215 0.752,0.239 0.741,0.269 0.723,0.297 0.707,0.327 0.688,0.346 0.673,0.376 0.654,0.4 0.635,0.425 0.619,0.444 0.596,0.468 0.575,0.493 0.557,0.513 0.537,0.532 0.512,0.547 0.493,0.571 0.469,0.585 0.448,0.605 0.425,0.62 0.396,0.639 0.376,0.649 0.351,0.664 0.327,0.678 0.298,0.693 0.273,0.703 0.244,0.713 0.22,0.727 0.19,0.737 0.161,0.741 0.136,0.751 0.103,0.762 0.073,0.766 0.049,0.771 0.01,0.776 -0.015,0.781 -0.049,0.786 -0.082,0.79 -0.113,0.791 -0.146,0.795 -0.897,4.324 -0.884,4.216 -0.873,4.108 -0.863,3.997 -0.854,3.884 -0.839,3.782 -0.834,3.665 -0.82,3.563 -0.811,3.45 -0.795,3.337 -0.791,3.23 -0.775,3.124 -0.766,3.011 -0.752,2.904 -0.747,2.795 -0.731,2.684 -0.723,2.572 -0.713,2.469 -0.697,2.352 -0.693,2.25 -0.678,2.132 -0.669,2.03 -0.653,1.918 -0.649,1.811 -0.635,1.698 -0.624,1.591 -0.61,1.479 -0.604,1.371 -0.591,1.259 -0.581,1.151 -0.57,1.044 -0.562,0.932 -0.546,0.825 -0.537,0.712 -0.527,0.605 -0.518,0.498 -0.502,0.385 -0.493,0.278 -0.483,0.166 -0.473,0.059 -0.503,0 -0.541,-0.01 -0.576,-0.009 -0.615,-0.02 -0.653,-0.03 -0.688,-0.029 -0.728,-0.039 -0.761,-0.044 -0.801,-0.054 -0.839,-0.054 -0.874,-0.068 -0.912,-0.068 -0.946,-0.078 -0.986,-0.083 -1.02,-0.088 -1.063,-0.097 -1.094,-0.103 -1.137,-0.108 -1.171,-0.117 -1.206,-0.117 -1.244,-0.132 -1.283,-0.132 -1.317,-0.141 -1.357,-0.146 -1.395,-0.151 -1.431,-0.161 -1.469,-0.166 -1.503,-0.175 -1.542,-0.176 -1.581,-0.186 -1.615,-0.19 -1.649,-0.2 -1.692,-0.206 -1.728,-0.209 -1.763,-0.22 -1.8,-0.219 -1.84,-0.23 -1.874,-0.239 -1.913,-0.244 -1.951,-0.25 -1.864,-0.278 -1.835,-0.352 -1.801,-0.424 -1.771,-0.493 -1.737,-0.561 -1.703,-0.63 -1.669,-0.693 -1.625,-0.756 -1.591,-0.815 -1.552,-0.878 -1.508,-0.937 -1.464,-0.991 -1.42,-1.049 -1.376,-1.098 -1.327,-1.152 -1.284,-1.201 -1.229,-1.249 -1.181,-1.293 -1.132,-1.337 -1.073,-1.381 -1.025,-1.419 -0.966,-1.459 -0.908,-1.499 -0.854,-1.532 -0.791,-1.566 -0.731,-1.601 -0.669,-1.63 -0.604,-1.659 -0.537,-1.683 -0.478,-1.708 -0.405,-1.737 -0.337,-1.752 -0.269,-1.776 -0.2,-1.796 -0.122,-1.81 -0.054,-1.825 0.024,-1.839 0.103,-1.85 0.176,-1.859 0.259,-1.864 6.07,-38.219 84.553,27.966 4.88,-21.164 -107.842,-27.17 -0.355,-0.083 -0.361,-0.068 -0.356,-0.054 -0.356,-0.034 -0.356,-0.025 -0.355,-0.009 -0.352,0.004 -0.352,0.02 -0.346,0.035 -0.347,0.048 -0.342,0.059 -0.337,0.074 -0.337,0.083 -0.326,0.103 -0.327,0.107 -0.322,0.126 -0.313,0.137 -0.313,0.146 -0.302,0.156 -0.298,0.171 -0.288,0.186 -0.283,0.19 -0.278,0.205 -0.268,0.215 -0.259,0.224 -0.254,0.234 -0.239,0.244 -0.234,0.254 -0.225,0.264 -0.215,0.273 -0.205,0.283 -0.189,0.292 -0.186,0.298 -0.171,0.308 -0.156,0.317 -0.146,0.327 -0.137,0.332 -0.122,0.342 -0.112,0.347 -0.093,0.356 -59.255,238.241 -0.098,0.367 -0.122,0.355 -0.137,0.338 -0.156,0.326 -0.171,0.313 -0.186,0.297 -0.2,0.289 -0.215,0.268 -0.225,0.26 -0.238,0.238 -0.254,0.229 -0.259,0.215 -0.273,0.195 -0.278,0.182 -0.287,0.17 -0.298,0.152 -0.308,0.135 -0.308,0.117 -0.317,0.104 -0.322,0.088 -0.321,0.072 -0.327,0.055 -0.332,0.039 -0.332,0.02 -0.336,0 -0.332,-0.016 -0.332,-0.029 -0.332,-0.049 -0.332,-0.066 -0.326,-0.09 -0.322,-0.102 -0.322,-0.123 -0.313,-0.141 -0.313,-0.16 -0.302,-0.182 -0.293,-0.195 -0.288,-0.219 -0.283,-0.24 -0.269,-0.252 -0.258,-0.279 -40.532,-45.785 11.37,-30.46 17.479,27.293 0.298,0.438 0.322,0.411 0.331,0.38 0.356,0.356 0.366,0.327 0.381,0.303 0.395,0.268 0.405,0.249 0.415,0.22 0.424,0.19 0.435,0.167 0.444,0.141 0.444,0.117 0.448,0.088 0.454,0.063 0.459,0.039 0.454,0.01 0.458,-0.01 0.454,-0.034 0.449,-0.063 0.448,-0.083 0.444,-0.112 0.435,-0.132 0.429,-0.156 0.42,-0.181 0.41,-0.205 0.4,-0.229 0.385,-0.249 0.376,-0.273 0.356,-0.298 0.342,-0.317 0.327,-0.337 0.307,-0.366 0.283,-0.38 0.269,-0.405 0.244,-0.43 0.225,-0.449 0.195,-0.468 0.171,-0.488 0.146,-0.512 51.945,-206.167 0.156,-0.585 0.186,-0.576 0.2,-0.566 0.224,-0.551 0.244,-0.542 0.264,-0.527 0.283,-0.512 0.298,-0.498 0.316,-0.488 0.337,-0.469 0.354,-0.459 0.366,-0.444 0.386,-0.425 0.395,-0.41 0.415,-0.396 0.43,-0.38 0.439,-0.361 0.453,-0.346 0.464,-0.327 0.479,-0.313 0.487,-0.288 0.498,-0.273 0.513,-0.259 0.517,-0.234 0.527,-0.22 0.537,-0.195 0.546,-0.175 0.552,-0.156 0.557,-0.137 0.565,-0.117 0.571,-0.093 0.576,-0.073 0.58,-0.049 0.586,-0.024 0.586,-0.005 0.595,0.02 0.59,0.038 z m 52.17,55.24 -1.02,0.107 -1.006,0.142 -0.995,0.186 -0.981,0.22 -0.961,0.259 -0.951,0.298 -0.932,0.332 -0.918,0.366 -0.898,0.4 -0.878,0.434 -0.864,0.469 -0.839,0.498 -0.815,0.532 -0.795,0.561 -0.775,0.585 -0.747,0.62 -0.728,0.648 -0.697,0.674 -0.674,0.698 -0.648,0.727 -0.62,0.746 -0.586,0.771 -0.561,0.8 -0.532,0.815 -0.498,0.839 -0.468,0.859 -0.435,0.883 -0.4,0.898 -0.366,0.917 -0.331,0.932 -0.298,0.947 -0.259,0.966 -0.22,0.98 -0.186,0.996 -0.141,1.006 -0.108,1.02 -0.058,1.029 -0.025,1.044 0.025,1.04 0.058,1.035 0.108,1.02 0.141,1.005 0.186,0.995 0.22,0.981 0.259,0.961 0.298,0.952 0.331,0.932 0.366,0.917 0.4,0.898 0.435,0.878 0.468,0.863 0.498,0.84 0.532,0.815 0.561,0.795 0.586,0.776 0.62,0.747 0.648,0.727 0.674,0.698 0.697,0.673 0.728,0.649 0.747,0.615 0.775,0.59 0.795,0.562 0.815,0.532 0.839,0.498 0.864,0.468 0.878,0.435 0.898,0.399 0.918,0.366 0.932,0.332 0.951,0.297 0.961,0.259 0.981,0.22 0.995,0.186 1.006,0.142 1.02,0.102 1.034,0.063 1.04,0.024 1.039,-0.024 1.034,-0.063 1.021,-0.102 1.005,-0.142 0.996,-0.186 0.98,-0.22 0.961,-0.259 0.952,-0.297 0.932,-0.332 0.918,-0.366 0.897,-0.399 0.878,-0.435 0.864,-0.468 0.839,-0.498 0.815,-0.532 0.795,-0.562 0.776,-0.59 0.746,-0.615 0.728,-0.649 0.697,-0.673 0.674,-0.698 0.648,-0.727 0.62,-0.747 0.586,-0.776 0.561,-0.795 0.532,-0.815 0.498,-0.84 0.469,-0.863 0.434,-0.878 0.4,-0.898 0.366,-0.917 0.332,-0.932 0.297,-0.952 0.259,-0.961 0.22,-0.981 0.186,-0.995 0.142,-1.005 0.107,-1.02 0.058,-1.035 0.025,-1.04 -0.025,-1.044 -0.058,-1.029 -0.107,-1.02 -0.142,-1.006 -0.186,-0.996 -0.22,-0.98 -0.259,-0.966 -0.297,-0.947 -0.332,-0.932 -0.366,-0.917 -0.4,-0.898 -0.434,-0.883 -0.469,-0.859 -0.498,-0.839 -0.532,-0.815 -0.561,-0.8 -0.586,-0.771 -0.62,-0.746 -0.648,-0.727 -0.674,-0.698 -0.697,-0.674 -0.728,-0.648 -0.746,-0.62 -0.776,-0.585 -0.795,-0.561 -0.815,-0.532 -0.839,-0.498 -0.864,-0.469 -0.878,-0.434 -0.897,-0.4 -0.918,-0.366 -0.932,-0.332 -0.952,-0.298 -0.961,-0.259 -0.98,-0.22 -0.996,-0.186 -1.005,-0.142 -1.021,-0.107 -1.034,-0.059 -1.039,-0.024 -1.04,0.024 -1.034,0.059 z"
           id="a19Me9VcEP" /></g></mask><defs
       id="defs12"><filter
         height="277.147"
         width="255.653"
         y="48.543999"
         x="181.047"
         filterUnits="userSpaceOnUse"
         id="Adobe_OpacityMaskFilter"><feColorMatrix
           id="feColorMatrix15"
           values="1 0 0 0 0  0 1 0 0 0  0 0 1 0 0  0 0 0 1 0"
           type="matrix" /></filter></defs><mask
       id="maskc4a70bnBkm"
       height="277.147"
       width="255.653"
       y="48.544"
       x="181.047"
       maskUnits="userSpaceOnUse"><rect
         style="fill:#ffffff;filter:url(#Adobe_OpacityMaskFilter)"
         id="rect18"
         height="276.99799"
         width="255.067"
         y="48.617001"
         x="181.561" /><g
         id="g20"><path
           inkscape:connector-curvature="0"
           d="m 230.305,51.57 0.332,0.039 0.327,0.054 0.321,0.068 0.322,0.088 0.317,0.107 0.308,0.117 0.308,0.137 0.297,0.151 0.288,0.166 0.278,0.186 0.273,0.195 0.259,0.215 0.253,0.225 0.239,0.244 0.225,0.253 0.215,0.273 0.2,0.283 0.186,0.303 0.171,0.313 0.156,0.327 0.136,0.336 0.122,0.352 0.098,0.366 59.256,238.247 0.093,0.356 0.112,0.347 0.122,0.342 0.137,0.332 0.146,0.321 0.156,0.317 0.17,0.313 0.186,0.297 0.19,0.293 0.205,0.283 0.215,0.273 0.225,0.264 0.234,0.254 0.238,0.244 0.254,0.234 0.259,0.225 0.269,0.214 0.278,0.205 0.283,0.19 0.288,0.181 0.297,0.171 0.303,0.161 0.313,0.146 0.313,0.137 0.322,0.123 0.326,0.111 0.327,0.098 0.337,0.088 0.337,0.073 0.341,0.059 0.348,0.049 0.346,0.03 0.352,0.02 0.352,0.009 0.355,-0.009 0.356,-0.025 0.356,-0.039 0.356,-0.049 0.36,-0.068 0.356,-0.082 107.834,-27.171 -4.88,-21.169 -84.552,27.971 -6.071,-38.219 -0.258,-1.869 -0.176,-1.859 -0.103,-1.85 -0.024,-1.839 0.054,-1.825 0.122,-1.81 0.2,-1.791 0.268,-1.777 0.337,-1.756 0.405,-1.732 0.479,-1.708 0.537,-1.688 0.604,-1.655 0.668,-1.63 0.732,-1.601 0.791,-1.566 0.854,-1.532 0.908,-1.498 0.966,-1.458 1.024,-1.425 1.073,-1.376 1.133,-1.342 1.181,-1.293 1.229,-1.245 1.284,-1.2 1.327,-1.152 1.376,-1.098 1.42,-1.049 1.464,-0.991 1.508,-0.937 1.552,-0.878 1.591,-0.82 1.625,-0.756 1.669,-0.693 1.703,-0.629 1.737,-0.561 1.771,-0.493 1.801,-0.424 1.834,-0.352 1.864,-0.278 1.952,-0.249 1.913,-0.244 1.873,-0.234 1.841,-0.229 1.8,-0.225 1.762,-0.214 1.728,-0.215 1.693,-0.2 1.649,-0.2 1.615,-0.19 1.581,-0.186 1.542,-0.181 1.503,-0.17 1.469,-0.166 1.43,-0.161 1.396,-0.151 1.357,-0.146 1.317,-0.142 1.283,-0.136 1.244,-0.127 1.206,-0.122 1.171,-0.112 1.137,-0.112 1.093,-0.103 1.064,-0.092 1.02,-0.093 0.985,-0.083 0.947,-0.074 0.912,-0.073 0.874,-0.063 0.839,-0.059 0.801,-0.049 0.761,-0.044 0.728,-0.039 0.688,-0.034 0.654,-0.025 0.614,-0.02 0.576,-0.014 0.542,-0.005 0.502,0 0.474,0.058 0.483,0.166 0.492,0.278 0.503,0.385 0.518,0.493 0.526,0.605 0.537,0.717 0.547,0.82 0.561,0.937 0.571,1.039 0.581,1.152 0.59,1.264 0.605,1.371 0.61,1.479 0.624,1.591 0.635,1.698 0.648,1.811 0.654,1.917 0.669,2.025 0.678,2.137 0.693,2.245 0.697,2.357 0.713,2.464 0.722,2.577 0.732,2.684 0.747,2.791 0.751,2.904 0.766,3.011 0.776,3.124 0.79,3.23 0.796,3.342 0.81,3.45 0.82,3.558 0.835,3.669 0.839,3.777 0.854,3.889 0.864,3.997 0.873,4.109 0.884,4.216 0.897,4.324 0.146,0.791 0.112,0.795 0.083,0.786 0.049,0.785 0.015,0.786 -0.01,0.776 -0.049,0.771 -0.073,0.767 -0.103,0.761 -0.137,0.751 -0.161,0.742 -0.19,0.737 -0.22,0.722 -0.244,0.717 -0.272,0.703 -0.298,0.688 -0.327,0.678 -0.352,0.668 -0.375,0.649 -0.396,0.634 -0.425,0.625 -0.449,0.6 -0.468,0.591 -0.493,0.565 -0.512,0.551 -0.537,0.533 -0.557,0.512 -0.575,0.488 -0.596,0.468 -0.62,0.449 -0.634,0.42 -0.654,0.399 -0.674,0.377 -0.688,0.351 -0.708,0.322 -0.722,0.298 -0.742,0.268 -0.751,0.244 -0.771,0.215 -0.785,0.181 -120.182,25.438 -0.595,0.113 -0.601,0.092 -0.596,0.064 -0.59,0.043 -0.596,0.02 -0.585,-0.004 -0.586,-0.029 -0.581,-0.049 -0.575,-0.074 -0.571,-0.092 -0.566,-0.113 -0.556,-0.137 -0.552,-0.154 -0.547,-0.176 -0.536,-0.201 -0.527,-0.215 -0.518,-0.238 -0.512,-0.254 -0.498,-0.273 -0.488,-0.293 -0.478,-0.309 -0.464,-0.33 -0.454,-0.342 -0.438,-0.367 -0.43,-0.375 -0.415,-0.395 -0.396,-0.41 -0.385,-0.43 -0.366,-0.439 -0.352,-0.459 -0.337,-0.473 -0.317,-0.482 -0.297,-0.504 -0.283,-0.512 -0.264,-0.527 -0.244,-0.537 -0.225,-0.551 -0.2,-0.566 -0.186,-0.576 -0.155,-0.586 -51.946,-206.171 -0.146,-0.508 -0.171,-0.493 -0.194,-0.468 -0.225,-0.45 -0.244,-0.424 -0.269,-0.405 -0.283,-0.385 -0.308,-0.361 -0.326,-0.342 -0.342,-0.317 -0.356,-0.293 -0.376,-0.273 -0.386,-0.254 -0.399,-0.224 -0.41,-0.205 -0.42,-0.181 -0.43,-0.156 -0.434,-0.137 -0.444,-0.107 -0.449,-0.083 -0.448,-0.063 -0.454,-0.034 -0.459,-0.015 -0.454,0.015 -0.458,0.039 -0.454,0.063 -0.449,0.088 -0.443,0.112 -0.444,0.142 -0.435,0.166 -0.425,0.195 -0.414,0.22 -0.405,0.244 -0.396,0.273 -0.381,0.297 -0.365,0.332 -0.356,0.352 -0.332,0.38 -0.322,0.415 -0.297,0.434 -17.48,27.298 -11.369,-30.466 40.531,-45.777 0.259,-0.278 0.269,-0.258 0.283,-0.234 0.288,-0.22 0.292,-0.2 0.303,-0.175 0.313,-0.161 0.313,-0.142 0.322,-0.122 0.321,-0.107 0.327,-0.083 0.332,-0.068 0.332,-0.049 0.331,-0.034 0.332,-0.015 0.337,0.005 0.332,0.018 z m 118.023,165.416 -1.021,0.102 -1.005,0.146 -0.995,0.181 -0.981,0.225 -0.961,0.258 -0.952,0.293 -0.932,0.332 -0.918,0.366 -0.897,0.404 -0.878,0.435 -0.864,0.464 -0.839,0.502 -0.815,0.527 -0.795,0.562 -0.776,0.59 -0.746,0.62 -0.728,0.644 -0.697,0.673 -0.674,0.703 -0.649,0.722 -0.619,0.751 -0.586,0.771 -0.562,0.795 -0.531,0.82 -0.498,0.839 -0.468,0.858 -0.435,0.878 -0.4,0.903 -0.366,0.913 -0.332,0.937 -0.297,0.946 -0.259,0.967 -0.22,0.98 -0.186,0.996 -0.142,1.005 -0.107,1.021 -0.059,1.029 -0.024,1.044 0.024,1.04 0.059,1.029 0.107,1.02 0.142,1.01 0.186,0.991 0.22,0.98 0.259,0.966 0.297,0.951 0.332,0.932 0.366,0.917 0.4,0.898 0.435,0.878 0.468,0.859 0.498,0.839 0.531,0.82 0.562,0.795 0.586,0.776 0.619,0.747 0.649,0.727 0.674,0.698 0.697,0.673 0.728,0.644 0.746,0.62 0.776,0.59 0.795,0.562 0.815,0.532 0.839,0.498 0.864,0.468 0.878,0.435 0.897,0.4 0.918,0.366 0.932,0.332 0.952,0.297 0.961,0.259 0.981,0.22 0.995,0.185 1.005,0.142 1.021,0.103 1.034,0.063 1.039,0.02 1.04,-0.02 1.034,-0.063 1.02,-0.103 1.006,-0.142 0.995,-0.185 0.981,-0.22 0.961,-0.259 0.951,-0.297 0.933,-0.332 0.917,-0.366 0.898,-0.4 0.878,-0.435 0.864,-0.468 0.839,-0.498 0.814,-0.532 0.796,-0.562 0.775,-0.59 0.747,-0.62 0.728,-0.644 0.697,-0.673 0.673,-0.698 0.649,-0.727 0.62,-0.747 0.585,-0.776 0.562,-0.795 0.532,-0.82 0.498,-0.839 0.468,-0.859 0.435,-0.878 0.4,-0.898 0.366,-0.917 0.331,-0.932 0.298,-0.951 0.259,-0.966 0.22,-0.98 0.185,-0.991 0.142,-1.01 0.108,-1.02 0.058,-1.029 0.025,-1.04 -0.025,-1.044 -0.058,-1.029 -0.108,-1.021 -0.142,-1.005 -0.185,-0.996 -0.22,-0.98 -0.259,-0.967 -0.298,-0.946 -0.331,-0.937 -0.366,-0.913 -0.4,-0.903 -0.435,-0.878 -0.468,-0.858 -0.498,-0.839 -0.532,-0.82 -0.562,-0.795 -0.585,-0.771 -0.62,-0.751 -0.649,-0.722 -0.673,-0.703 -0.697,-0.673 -0.728,-0.644 -0.747,-0.62 -0.775,-0.59 -0.796,-0.562 -0.814,-0.527 -0.839,-0.502 -0.864,-0.464 -0.878,-0.435 -0.898,-0.404 -0.917,-0.366 -0.933,-0.332 -0.951,-0.293 -0.961,-0.258 -0.981,-0.225 -0.995,-0.181 -1.006,-0.146 -1.02,-0.102 -1.034,-0.063 -1.04,-0.02 -1.039,0.02 -1.034,0.063 z"
           id="aMoSRkUs" /></g></mask></defs><sodipodi:namedview
     pagecolor="#ffffff"
     bordercolor="#666666"
     borderopacity="1"
     objecttolerance="10"
     gridtolerance="10"
     guidetolerance="10"
     inkscape:pageopacity="0"
     inkscape:pageshadow="2"
     inkscape:window-width="1822"
     inkscape:window-height="1057"
     id="namedview57"
     showgrid="false"
     fit-margin-top="0"
     fit-margin-left="0"
     fit-margin-right="0"
     fit-margin-bottom="0"
     inkscape:zoom="1.1700511"
     inkscape:cx="182.14753"
     inkscape:cy="128.88692"
     inkscape:window-x="90"
     inkscape:window-y="-8"
     inkscape:window-maximized="1"
     inkscape:current-layer="g46" /><path
     id="aMoSRkUs_1_"
     d="m 288.60309,8.27043 0.332,0.039 0.327,0.054 0.321,0.068 0.322,0.088 0.317,0.107 0.308,0.117 0.308,0.137 0.297,0.151 0.288,0.166 0.278,0.186 0.273,0.195 0.259,0.215 0.253,0.225 0.239,0.244 0.225,0.253 0.215,0.273 0.2,0.283 0.186,0.303 0.171,0.313 0.156,0.327 0.136,0.336 0.122,0.352 0.098,0.366 59.256,238.247 0.093,0.356 0.112,0.347 0.122,0.342 0.137,0.332 0.146,0.321 0.156,0.317 0.17,0.313 0.186,0.297 0.19,0.293 0.205,0.283 0.215,0.273 0.225,0.264 0.234,0.254 0.238,0.244 0.254,0.234 0.259,0.225 0.269,0.214 0.278,0.205 0.283,0.19 0.288,0.181 0.297,0.171 0.303,0.161 0.313,0.146 0.313,0.137 0.322,0.123 0.326,0.111 0.327,0.098 0.337,0.088 0.337,0.073 0.341,0.059 0.348,0.049 0.346,0.03 0.352,0.02 0.352,0.009 0.355,-0.009 0.356,-0.025 0.356,-0.039 0.356,-0.049 0.36,-0.068 0.356,-0.082 107.834,-27.171 -4.88,-21.169 -84.552,27.971 -6.071,-38.219 -0.258,-1.869 -0.176,-1.859 -0.103,-1.85 -0.024,-1.839 0.054,-1.825 0.122,-1.81 0.2,-1.791 0.268,-1.777 0.337,-1.756 0.405,-1.732 0.479,-1.708 0.537,-1.688 0.604,-1.655 0.668,-1.63 0.732,-1.601 0.791,-1.566 0.854,-1.532 0.908,-1.498 0.966,-1.458 1.024,-1.425 1.073,-1.376 1.133,-1.342 1.181,-1.293 1.229,-1.245 1.284,-1.2 1.327,-1.152 1.376,-1.098 1.42,-1.049 1.464,-0.991 1.508,-0.937 1.552,-0.878 1.591,-0.82 1.625,-0.756 1.669,-0.693 1.703,-0.629 1.737,-0.561 1.771,-0.493 1.801,-0.424 1.834,-0.352 1.864,-0.278 1.952,-0.249 1.913,-0.244 1.873,-0.234 1.841,-0.229 1.8,-0.225 1.762,-0.214 1.728,-0.215 1.693,-0.2 1.649,-0.2 1.615,-0.19 1.581,-0.186 1.542,-0.181 1.503,-0.17 1.469,-0.166 1.43,-0.161 1.396,-0.151 1.357,-0.146 1.317,-0.142 1.283,-0.136 1.244,-0.127 1.206,-0.122 1.171,-0.112 1.137,-0.112 1.093,-0.103 1.064,-0.092 1.02,-0.093 0.985,-0.083 0.947,-0.074 0.912,-0.073 0.874,-0.063 0.839,-0.059 0.801,-0.049 0.761,-0.044 0.728,-0.039 0.688,-0.034 0.654,-0.025 0.614,-0.02 0.576,-0.014 0.542,-0.005 0.502,0 0.474,0.058 0.483,0.166 0.492,0.278 0.503,0.385 0.518,0.493 0.526,0.605 0.537,0.717 0.547,0.82 0.561,0.937 0.571,1.039 0.581,1.152 0.59,1.264 0.605,1.371 0.61,1.479 0.624,1.591 0.635,1.698 0.648,1.811 0.654,1.917 0.669,2.025 0.678,2.137 0.693,2.245 0.697,2.357 0.713,2.464 0.722,2.577 0.732,2.684 0.747,2.791 0.751,2.904 0.766,3.011 0.776,3.124 0.79,3.23 0.796,3.342 0.81,3.45 0.82,3.558 0.835,3.669 0.839,3.777 0.854,3.889 0.864,3.997 0.873,4.109 0.884,4.216 0.897,4.324 0.146,0.791 0.112,0.795 0.083,0.786 0.049,0.785 0.015,0.786 -0.01,0.776 -0.049,0.771 -0.073,0.767 -0.103,0.761 -0.137,0.751 -0.161,0.742 -0.19,0.737 -0.22,0.722 -0.244,0.717 -0.272,0.703 -0.298,0.688 -0.327,0.678 -0.352,0.668 -0.375,0.649 -0.396,0.634 -0.425,0.625 -0.449,0.6 -0.468,0.591 -0.493,0.565 -0.512,0.551 -0.537,0.533 -0.557,0.512 -0.575,0.488 -0.596,0.468 -0.62,0.449 -0.634,0.42 -0.654,0.399 -0.674,0.377 -0.688,0.351 -0.708,0.322 -0.722,0.298 -0.742,0.268 -0.751,0.244 -0.771,0.215 -0.785,0.181 -120.182,25.438 -0.595,0.113 -0.601,0.092 -0.596,0.064 -0.59,0.043 -0.596,0.02 -0.585,-0.004 -0.586,-0.029 -0.581,-0.049 -0.575,-0.074 -0.571,-0.092 -0.566,-0.113 -0.556,-0.137 -0.552,-0.154 -0.547,-0.176 -0.536,-0.201 -0.527,-0.215 -0.518,-0.238 -0.512,-0.254 -0.498,-0.273 -0.488,-0.293 -0.478,-0.309 -0.464,-0.33 -0.454,-0.342 -0.438,-0.367 -0.43,-0.375 -0.415,-0.395 -0.396,-0.41 -0.385,-0.43 -0.366,-0.439 -0.352,-0.459 -0.337,-0.473 -0.317,-0.482 -0.297,-0.504 -0.283,-0.512 -0.264,-0.527 -0.244,-0.537 -0.225,-0.551 -0.2,-0.566 -0.186,-0.576 -0.155,-0.586 -51.946,-206.171 -0.146,-0.508 -0.171,-0.493 -0.194,-0.468 -0.225,-0.45 -0.244,-0.424 -0.269,-0.405 -0.283,-0.385 -0.308,-0.361 -0.326,-0.342 -0.342,-0.317 -0.356,-0.293 -0.376,-0.273 -0.386,-0.254 -0.399,-0.224 -0.41,-0.205 -0.42,-0.181 -0.43,-0.156 -0.434,-0.137 -0.444,-0.107 -0.449,-0.083 -0.448,-0.063 -0.454,-0.034 -0.459,-0.015 -0.454,0.015 -0.458,0.039 -0.454,0.063 -0.449,0.088 -0.443,0.112 -0.444,0.142 -0.435,0.166 -0.425,0.195 -0.414,0.22 -0.405,0.244 -0.396,0.273 -0.381,0.297 -0.365,0.332 -0.356,0.352 -0.332,0.38 -0.322,0.415 -0.297,0.434 -17.48,27.298 -11.369,-30.466 40.531,-45.777 0.259,-0.278 0.269,-0.258 0.283,-0.234 0.288,-0.22 0.292,-0.2 0.303,-0.175 0.313,-0.161 0.313,-0.142 0.322,-0.122 0.321,-0.107 0.327,-0.083 0.332,-0.068 0.332,-0.049 0.331,-0.034 0.332,-0.015 0.337,0.005 0.332,0.018 z m 118.023,165.416 -1.021,0.102 -1.005,0.146 -0.995,0.181 -0.981,0.225 -0.961,0.258 -0.952,0.293 -0.932,0.332 -0.918,0.366 -0.897,0.404 -0.878,0.435 -0.864,0.464 -0.839,0.502 -0.815,0.527 -0.795,0.562 -0.776,0.59 -0.746,0.62 -0.728,0.644 -0.697,0.673 -0.674,0.703 -0.649,0.722 -0.619,0.751 -0.586,0.771 -0.562,0.795 -0.531,0.82 -0.498,0.839 -0.468,0.858 -0.435,0.878 -0.4,0.903 -0.366,0.913 -0.332,0.937 -0.297,0.946 -0.259,0.967 -0.22,0.98 -0.186,0.996 -0.142,1.005 -0.107,1.021 -0.059,1.029 -0.024,1.044 0.024,1.04 0.059,1.029 0.107,1.02 0.142,1.01 0.186,0.991 0.22,0.98 0.259,0.966 0.297,0.951 0.332,0.932 0.366,0.917 0.4,0.898 0.435,0.878 0.468,0.859 0.498,0.839 0.531,0.82 0.562,0.795 0.586,0.776 0.619,0.747 0.649,0.727 0.674,0.698 0.697,0.673 0.728,0.644 0.746,0.62 0.776,0.59 0.795,0.562 0.815,0.532 0.839,0.498 0.864,0.468 0.878,0.435 0.897,0.4 0.918,0.366 0.932,0.332 0.952,0.297 0.961,0.259 0.981,0.22 0.995,0.185 1.005,0.142 1.021,0.103 1.034,0.063 1.039,0.02 1.04,-0.02 1.034,-0.063 1.02,-0.103 1.006,-0.142 0.995,-0.185 0.981,-0.22 0.961,-0.259 0.951,-0.297 0.933,-0.332 0.917,-0.366 0.898,-0.4 0.878,-0.435 0.864,-0.468 0.839,-0.498 0.814,-0.532 0.796,-0.562 0.775,-0.59 0.747,-0.62 0.728,-0.644 0.697,-0.673 0.673,-0.698 0.649,-0.727 0.62,-0.747 0.585,-0.776 0.562,-0.795 0.532,-0.82 0.498,-0.839 0.468,-0.859 0.435,-0.878 0.4,-0.898 0.366,-0.917 0.331,-0.932 0.298,-0.951 0.259,-0.966 0.22,-0.98 0.185,-0.991 0.142,-1.01 0.108,-1.02 0.058,-1.029 0.025,-1.04 -0.025,-1.044 -0.058,-1.029 -0.108,-1.021 -0.142,-1.005 -0.185,-0.996 -0.22,-0.98 -0.259,-0.967 -0.298,-0.946 -0.331,-0.937 -0.366,-0.913 -0.4,-0.903 -0.435,-0.878 -0.468,-0.858 -0.498,-0.839 -0.532,-0.82 -0.562,-0.795 -0.585,-0.771 -0.62,-0.751 -0.649,-0.722 -0.673,-0.703 -0.697,-0.673 -0.728,-0.644 -0.747,-0.62 -0.775,-0.59 -0.796,-0.562 -0.814,-0.527 -0.839,-0.502 -0.864,-0.464 -0.878,-0.435 -0.898,-0.404 -0.917,-0.366 -0.933,-0.332 -0.951,-0.293 -0.961,-0.258 -0.981,-0.225 -0.995,-0.181 -1.006,-0.146 -1.02,-0.102 -1.034,-0.063 -1.04,-0.02 -1.039,0.02 -1.034,0.063 z"
     inkscape:connector-curvature="0"
     style="fill:#4584b6;stroke-width:4;stroke-miterlimit:4;stroke-dasharray:none" /><g
     id="g25"
     transform="translate(58.29809,-43.29957)"><path
       id="aMoSRkUs_2_"
       d="m 230.305,51.57 0.332,0.039 0.327,0.054 0.321,0.068 0.322,0.088 0.317,0.107 0.308,0.117 0.308,0.137 0.297,0.151 0.288,0.166 0.278,0.186 0.273,0.195 0.259,0.215 0.253,0.225 0.239,0.244 0.225,0.253 0.215,0.273 0.2,0.283 0.186,0.303 0.171,0.313 0.156,0.327 0.136,0.336 0.122,0.352 0.098,0.366 59.256,238.247 0.093,0.356 0.112,0.347 0.122,0.342 0.137,0.332 0.146,0.321 0.156,0.317 0.17,0.313 0.186,0.297 0.19,0.293 0.205,0.283 0.215,0.273 0.225,0.264 0.234,0.254 0.238,0.244 0.254,0.234 0.259,0.225 0.269,0.214 0.278,0.205 0.283,0.19 0.288,0.181 0.297,0.171 0.303,0.161 0.313,0.146 0.313,0.137 0.322,0.123 0.326,0.111 0.327,0.098 0.337,0.088 0.337,0.073 0.341,0.059 0.348,0.049 0.346,0.03 0.352,0.02 0.352,0.009 0.355,-0.009 0.356,-0.025 0.356,-0.039 0.356,-0.049 0.36,-0.068 0.356,-0.082 107.834,-27.171 -4.88,-21.169 -84.552,27.971 -6.071,-38.219 -0.258,-1.869 -0.176,-1.859 -0.103,-1.85 -0.024,-1.839 0.054,-1.825 0.122,-1.81 0.2,-1.791 0.268,-1.777 0.337,-1.756 0.405,-1.732 0.479,-1.708 0.537,-1.688 0.604,-1.655 0.668,-1.63 0.732,-1.601 0.791,-1.566 0.854,-1.532 0.908,-1.498 0.966,-1.458 1.024,-1.425 1.073,-1.376 1.133,-1.342 1.181,-1.293 1.229,-1.245 1.284,-1.2 1.327,-1.152 1.376,-1.098 1.42,-1.049 1.464,-0.991 1.508,-0.937 1.552,-0.878 1.591,-0.82 1.625,-0.756 1.669,-0.693 1.703,-0.629 1.737,-0.561 1.771,-0.493 1.801,-0.424 1.834,-0.352 1.864,-0.278 1.952,-0.249 1.913,-0.244 1.873,-0.234 1.841,-0.229 1.8,-0.225 1.762,-0.214 1.728,-0.215 1.693,-0.2 1.649,-0.2 1.615,-0.19 1.581,-0.186 1.542,-0.181 1.503,-0.17 1.469,-0.166 1.43,-0.161 1.396,-0.151 1.357,-0.146 1.317,-0.142 1.283,-0.136 1.244,-0.127 1.206,-0.122 1.171,-0.112 1.137,-0.112 1.093,-0.103 1.064,-0.092 1.02,-0.093 0.985,-0.083 0.947,-0.074 0.912,-0.073 0.874,-0.063 0.839,-0.059 0.801,-0.049 0.761,-0.044 0.728,-0.039 0.688,-0.034 0.654,-0.025 0.614,-0.02 0.576,-0.014 0.542,-0.005 0.502,0 0.474,0.058 0.483,0.166 0.492,0.278 0.503,0.385 0.518,0.493 0.526,0.605 0.537,0.717 0.547,0.82 0.561,0.937 0.571,1.039 0.581,1.152 0.59,1.264 0.605,1.371 0.61,1.479 0.624,1.591 0.635,1.698 0.648,1.811 0.654,1.917 0.669,2.025 0.678,2.137 0.693,2.245 0.697,2.357 0.713,2.464 0.722,2.577 0.732,2.684 0.747,2.791 0.751,2.904 0.766,3.011 0.776,3.124 0.79,3.23 0.796,3.342 0.81,3.45 0.82,3.558 0.835,3.669 0.839,3.777 0.854,3.889 0.864,3.997 0.873,4.109 0.884,4.216 0.897,4.324 0.146,0.791 0.112,0.795 0.083,0.786 0.049,0.785 0.015,0.786 -0.01,0.776 -0.049,0.771 -0.073,0.767 -0.103,0.761 -0.137,0.751 -0.161,0.742 -0.19,0.737 -0.22,0.722 -0.244,0.717 -0.272,0.703 -0.298,0.688 -0.327,0.678 -0.352,0.668 -0.375,0.649 -0.396,0.634 -0.425,0.625 -0.449,0.6 -0.468,0.591 -0.493,0.565 -0.512,0.551 -0.537,0.533 -0.557,0.512 -0.575,0.488 -0.596,0.468 -0.62,0.449 -0.634,0.42 -0.654,0.399 -0.674,0.377 -0.688,0.351 -0.708,0.322 -0.722,0.298 -0.742,0.268 -0.751,0.244 -0.771,0.215 -0.785,0.181 -120.182,25.438 -0.595,0.113 -0.601,0.092 -0.596,0.064 -0.59,0.043 -0.596,0.02 -0.585,-0.004 -0.586,-0.029 -0.581,-0.049 -0.575,-0.074 -0.571,-0.092 -0.566,-0.113 -0.556,-0.137 -0.552,-0.154 -0.547,-0.176 -0.536,-0.201 -0.527,-0.215 -0.518,-0.238 -0.512,-0.254 -0.498,-0.273 -0.488,-0.293 -0.478,-0.309 -0.464,-0.33 -0.454,-0.342 -0.438,-0.367 -0.43,-0.375 -0.415,-0.395 -0.396,-0.41 -0.385,-0.43 -0.366,-0.439 -0.352,-0.459 -0.337,-0.473 -0.317,-0.482 -0.297,-0.504 -0.283,-0.512 -0.264,-0.527 -0.244,-0.537 -0.225,-0.551 -0.2,-0.566 -0.186,-0.576 -0.155,-0.586 -51.946,-206.171 -0.146,-0.508 -0.171,-0.493 -0.194,-0.468 -0.225,-0.45 -0.244,-0.424 -0.269,-0.405 -0.283,-0.385 -0.308,-0.361 -0.326,-0.342 -0.342,-0.317 -0.356,-0.293 -0.376,-0.273 -0.386,-0.254 -0.399,-0.224 -0.41,-0.205 -0.42,-0.181 -0.43,-0.156 -0.434,-0.137 -0.444,-0.107 -0.449,-0.083 -0.448,-0.063 -0.454,-0.034 -0.459,-0.015 -0.454,0.015 -0.458,0.039 -0.454,0.063 -0.449,0.088 -0.443,0.112 -0.444,0.142 -0.435,0.166 -0.425,0.195 -0.414,0.22 -0.405,0.244 -0.396,0.273 -0.381,0.297 -0.365,0.332 -0.356,0.352 -0.332,0.38 -0.322,0.415 -0.297,0.434 -17.48,27.298 -11.369,-30.466 40.531,-45.777 0.259,-0.278 0.269,-0.258 0.283,-0.234 0.288,-0.22 0.292,-0.2 0.303,-0.175 0.313,-0.161 0.313,-0.142 0.322,-0.122 0.321,-0.107 0.327,-0.083 0.332,-0.068 0.332,-0.049 0.331,-0.034 0.332,-0.015 0.337,0.005 0.332,0.018 z m 118.023,165.416 -1.021,0.102 -1.005,0.146 -0.995,0.181 -0.981,0.225 -0.961,0.258 -0.952,0.293 -0.932,0.332 -0.918,0.366 -0.897,0.404 -0.878,0.435 -0.864,0.464 -0.839,0.502 -0.815,0.527 -0.795,0.562 -0.776,0.59 -0.746,0.62 -0.728,0.644 -0.697,0.673 -0.674,0.703 -0.649,0.722 -0.619,0.751 -0.586,0.771 -0.562,0.795 -0.531,0.82 -0.498,0.839 -0.468,0.858 -0.435,0.878 -0.4,0.903 -0.366,0.913 -0.332,0.937 -0.297,0.946 -0.259,0.967 -0.22,0.98 -0.186,0.996 -0.142,1.005 -0.107,1.021 -0.059,1.029 -0.024,1.044 0.024,1.04 0.059,1.029 0.107,1.02 0.142,1.01 0.186,0.991 0.22,0.98 0.259,0.966 0.297,0.951 0.332,0.932 0.366,0.917 0.4,0.898 0.435,0.878 0.468,0.859 0.498,0.839 0.531,0.82 0.562,0.795 0.586,0.776 0.619,0.747 0.649,0.727 0.674,0.698 0.697,0.673 0.728,0.644 0.746,0.62 0.776,0.59 0.795,0.562 0.815,0.532 0.839,0.498 0.864,0.468 0.878,0.435 0.897,0.4 0.918,0.366 0.932,0.332 0.952,0.297 0.961,0.259 0.981,0.22 0.995,0.185 1.005,0.142 1.021,0.103 1.034,0.063 1.039,0.02 1.04,-0.02 1.034,-0.063 1.02,-0.103 1.006,-0.142 0.995,-0.185 0.981,-0.22 0.961,-0.259 0.951,-0.297 0.933,-0.332 0.917,-0.366 0.898,-0.4 0.878,-0.435 0.864,-0.468 0.839,-0.498 0.814,-0.532 0.796,-0.562 0.775,-0.59 0.747,-0.62 0.728,-0.644 0.697,-0.673 0.673,-0.698 0.649,-0.727 0.62,-0.747 0.585,-0.776 0.562,-0.795 0.532,-0.82 0.498,-0.839 0.468,-0.859 0.435,-0.878 0.4,-0.898 0.366,-0.917 0.331,-0.932 0.298,-0.951 0.259,-0.966 0.22,-0.98 0.185,-0.991 0.142,-1.01 0.108,-1.02 0.058,-1.029 0.025,-1.04 -0.025,-1.044 -0.058,-1.029 -0.108,-1.021 -0.142,-1.005 -0.185,-0.996 -0.22,-0.98 -0.259,-0.967 -0.298,-0.946 -0.331,-0.937 -0.366,-0.913 -0.4,-0.903 -0.435,-0.878 -0.468,-0.858 -0.498,-0.839 -0.532,-0.82 -0.562,-0.795 -0.585,-0.771 -0.62,-0.751 -0.649,-0.722 -0.673,-0.703 -0.697,-0.673 -0.728,-0.644 -0.747,-0.62 -0.775,-0.59 -0.796,-0.562 -0.814,-0.527 -0.839,-0.502 -0.864,-0.464 -0.878,-0.435 -0.898,-0.404 -0.917,-0.366 -0.933,-0.332 -0.951,-0.293 -0.961,-0.258 -0.981,-0.225 -0.995,-0.181 -1.006,-0.146 -1.02,-0.102 -1.034,-0.063 -1.04,-0.02 -1.039,0.02 -1.034,0.063 z"
       inkscape:connector-curvature="0"
       style="fill-opacity:0;stroke:#646464;stroke-width:4;stroke-miterlimit:4;stroke-dasharray:none" /></g><path
     id="a19Me9VcEP_1_"
     d="m 353.96809,3.05843 0.595,0.069 0.601,0.087 0.596,0.117 120.185,25.443 0.786,0.181 0.771,0.215 0.752,0.239 0.741,0.269 0.723,0.297 0.707,0.327 0.688,0.346 0.673,0.376 0.654,0.4 0.635,0.425 0.619,0.444 0.596,0.468 0.575,0.493 0.557,0.513 0.537,0.532 0.512,0.547 0.493,0.571 0.469,0.585 0.448,0.605 0.425,0.62 0.396,0.639 0.376,0.649 0.351,0.664 0.327,0.678 0.298,0.693 0.273,0.703 0.244,0.713 0.22,0.727 0.19,0.737 0.161,0.741 0.136,0.751 0.103,0.762 0.073,0.766 0.049,0.771 0.01,0.776 -0.015,0.781 -0.049,0.786 -0.082,0.79 -0.113,0.791 -0.146,0.795 -0.897,4.324 -0.884,4.216 -0.873,4.108 -0.863,3.997 -0.854,3.884 -0.839,3.782 -0.834,3.665 -0.82,3.563 -0.811,3.45 -0.795,3.337 -0.791,3.23 -0.775,3.124 -0.766,3.011 -0.752,2.904 -0.747,2.795 -0.731,2.684 -0.723,2.572 -0.713,2.469 -0.697,2.352 -0.693,2.25 -0.678,2.132 -0.669,2.03 -0.653,1.918 -0.649,1.811 -0.635,1.698 -0.624,1.591 -0.61,1.479 -0.604,1.371 -0.591,1.259 -0.581,1.151 -0.57,1.044 -0.562,0.932 -0.546,0.825 -0.537,0.712 -0.527,0.605 -0.518,0.498 -0.502,0.385 -0.493,0.278 -0.483,0.166 -0.473,0.059 -0.503,0 -0.541,-0.01 -0.576,-0.009 -0.615,-0.02 -0.653,-0.03 -0.688,-0.029 -0.728,-0.039 -0.761,-0.044 -0.801,-0.054 -0.839,-0.054 -0.874,-0.068 -0.912,-0.068 -0.946,-0.078 -0.986,-0.083 -1.02,-0.088 -1.063,-0.097 -1.094,-0.103 -1.137,-0.108 -1.171,-0.117 -1.206,-0.117 -1.244,-0.132 -1.283,-0.132 -1.317,-0.141 -1.357,-0.146 -1.395,-0.151 -1.431,-0.161 -1.469,-0.166 -1.503,-0.175 -1.542,-0.176 -1.581,-0.186 -1.615,-0.19 -1.649,-0.2 -1.692,-0.206 -1.728,-0.209 -1.763,-0.22 -1.8,-0.219 -1.84,-0.23 -1.874,-0.239 -1.913,-0.244 -1.951,-0.25 -1.864,-0.278 -1.835,-0.352 -1.801,-0.424 -1.771,-0.493 -1.737,-0.561 -1.703,-0.63 -1.669,-0.693 -1.625,-0.756 -1.591,-0.815 -1.552,-0.878 -1.508,-0.937 -1.464,-0.991 -1.42,-1.049 -1.376,-1.098 -1.327,-1.152 -1.284,-1.201 -1.229,-1.249 -1.181,-1.293 -1.132,-1.337 -1.073,-1.381 -1.025,-1.419 -0.966,-1.459 -0.908,-1.499 -0.854,-1.532 -0.791,-1.566 -0.731,-1.601 -0.669,-1.63 -0.604,-1.659 -0.537,-1.683 -0.478,-1.708 -0.405,-1.737 -0.337,-1.752 -0.269,-1.776 -0.2,-1.796 -0.122,-1.81 -0.054,-1.825 0.024,-1.839 0.103,-1.85 0.176,-1.859 0.259,-1.864 6.07,-38.219 84.553,27.966 4.88,-21.164 -107.842,-27.17 -0.355,-0.083 -0.361,-0.068 -0.356,-0.054 -0.356,-0.034 -0.356,-0.025 -0.355,-0.009 -0.352,0.004 -0.352,0.02 -0.346,0.035 -0.347,0.048 -0.342,0.059 -0.337,0.074 -0.337,0.083 -0.326,0.103 -0.327,0.107 -0.322,0.126 -0.313,0.137 -0.313,0.146 -0.302,0.156 -0.298,0.171 -0.288,0.186 -0.283,0.19 -0.278,0.205 -0.268,0.215 -0.259,0.224 -0.254,0.234 -0.239,0.244 -0.234,0.254 -0.225,0.264 -0.215,0.273 -0.205,0.283 -0.189,0.292 -0.186,0.298 -0.171,0.308 -0.156,0.317 -0.146,0.327 -0.137,0.332 -0.122,0.342 -0.112,0.347 -0.093,0.356 -59.255,238.241 -0.098,0.367 -0.122,0.355 -0.137,0.338 -0.156,0.326 -0.171,0.313 -0.186,0.297 -0.2,0.289 -0.215,0.268 -0.225,0.26 -0.238,0.238 -0.254,0.229 -0.259,0.215 -0.273,0.195 -0.278,0.182 -0.287,0.17 -0.298,0.152 -0.308,0.135 -0.308,0.117 -0.317,0.104 -0.322,0.088 -0.321,0.072 -0.327,0.055 -0.332,0.039 -0.332,0.02 -0.336,0 -0.332,-0.016 -0.332,-0.029 -0.332,-0.049 -0.332,-0.066 -0.326,-0.09 -0.322,-0.102 -0.322,-0.123 -0.313,-0.141 -0.313,-0.16 -0.302,-0.182 -0.293,-0.195 -0.288,-0.219 -0.283,-0.24 -0.269,-0.252 -0.258,-0.279 -40.532,-45.785 11.37,-30.46 17.479,27.293 0.298,0.438 0.322,0.411 0.331,0.38 0.356,0.356 0.366,0.327 0.381,0.303 0.395,0.268 0.405,0.249 0.415,0.22 0.424,0.19 0.435,0.167 0.444,0.141 0.444,0.117 0.448,0.088 0.454,0.063 0.459,0.039 0.454,0.01 0.458,-0.01 0.454,-0.034 0.449,-0.063 0.448,-0.083 0.444,-0.112 0.435,-0.132 0.429,-0.156 0.42,-0.181 0.41,-0.205 0.4,-0.229 0.385,-0.249 0.376,-0.273 0.356,-0.298 0.342,-0.317 0.327,-0.337 0.307,-0.366 0.283,-0.38 0.269,-0.405 0.244,-0.43 0.225,-0.449 0.195,-0.468 0.171,-0.488 0.146,-0.512 51.945,-206.167 0.156,-0.585 0.186,-0.576 0.2,-0.566 0.224,-0.551 0.244,-0.542 0.264,-0.527 0.283,-0.512 0.298,-0.498 0.316,-0.488 0.337,-0.469 0.354,-0.459 0.366,-0.444 0.386,-0.425 0.395,-0.41 0.415,-0.396 0.43,-0.38 0.439,-0.361 0.453,-0.346 0.464,-0.327 0.479,-0.313 0.487,-0.288 0.498,-0.273 0.513,-0.259 0.517,-0.234 0.527,-0.22 0.537,-0.195 0.546,-0.175 0.552,-0.156 0.557,-0.137 0.565,-0.117 0.571,-0.093 0.576,-0.073 0.58,-0.049 0.586,-0.024 0.586,-0.005 0.595,0.02 0.59,0.038 z m 52.17,55.24 -1.02,0.107 -1.006,0.142 -0.995,0.186 -0.981,0.22 -0.961,0.259 -0.951,0.298 -0.932,0.332 -0.918,0.366 -0.898,0.4 -0.878,0.434 -0.864,0.469 -0.839,0.498 -0.815,0.532 -0.795,0.561 -0.775,0.585 -0.747,0.62 -0.728,0.648 -0.697,0.674 -0.674,0.698 -0.648,0.727 -0.62,0.746 -0.586,0.771 -0.561,0.8 -0.532,0.815 -0.498,0.839 -0.468,0.859 -0.435,0.883 -0.4,0.898 -0.366,0.917 -0.331,0.932 -0.298,0.947 -0.259,0.966 -0.22,0.98 -0.186,0.996 -0.141,1.006 -0.108,1.02 -0.058,1.029 -0.025,1.044 0.025,1.04 0.058,1.035 0.108,1.02 0.141,1.005 0.186,0.995 0.22,0.981 0.259,0.961 0.298,0.952 0.331,0.932 0.366,0.917 0.4,0.898 0.435,0.878 0.468,0.863 0.498,0.84 0.532,0.815 0.561,0.795 0.586,0.776 0.62,0.747 0.648,0.727 0.674,0.698 0.697,0.673 0.728,0.649 0.747,0.615 0.775,0.59 0.795,0.562 0.815,0.532 0.839,0.498 0.864,0.468 0.878,0.435 0.898,0.399 0.918,0.366 0.932,0.332 0.951,0.297 0.961,0.259 0.981,0.22 0.995,0.186 1.006,0.142 1.02,0.102 1.034,0.063 1.04,0.024 1.039,-0.024 1.034,-0.063 1.021,-0.102 1.005,-0.142 0.996,-0.186 0.98,-0.22 0.961,-0.259 0.952,-0.297 0.932,-0.332 0.918,-0.366 0.897,-0.399 0.878,-0.435 0.864,-0.468 0.839,-0.498 0.815,-0.532 0.795,-0.562 0.776,-0.59 0.746,-0.615 0.728,-0.649 0.697,-0.673 0.674,-0.698 0.648,-0.727 0.62,-0.747 0.586,-0.776 0.561,-0.795 0.532,-0.815 0.498,-0.84 0.469,-0.863 0.434,-0.878 0.4,-0.898 0.366,-0.917 0.332,-0.932 0.297,-0.952 0.259,-0.961 0.22,-0.981 0.186,-0.995 0.142,-1.005 0.107,-1.02 0.058,-1.035 0.025,-1.04 -0.025,-1.044 -0.058,-1.029 -0.107,-1.02 -0.142,-1.006 -0.186,-0.996 -0.22,-0.98 -0.259,-0.966 -0.297,-0.947 -0.332,-0.932 -0.366,-0.917 -0.4,-0.898 -0.434,-0.883 -0.469,-0.859 -0.498,-0.839 -0.532,-0.815 -0.561,-0.8 -0.586,-0.771 -0.62,-0.746 -0.648,-0.727 -0.674,-0.698 -0.697,-0.674 -0.728,-0.648 -0.746,-0.62 -0.776,-0.585 -0.795,-0.561 -0.815,-0.532 -0.839,-0.498 -0.864,-0.469 -0.878,-0.434 -0.897,-0.4 -0.918,-0.366 -0.932,-0.332 -0.952,-0.298 -0.961,-0.259 -0.98,-0.22 -0.996,-0.186 -1.005,-0.142 -1.021,-0.107 -1.034,-0.059 -1.039,-0.024 -1.04,0.024 -1.034,0.059 z"
     inkscape:connector-curvature="0"
     style="fill:#ffde27" /><g
     id="g46"
     transform="translate(58.29809,-43.29957)"><path
       id="a19Me9VcEP_2_"
       d="m 295.67,46.358 0.595,0.069 0.601,0.087 0.596,0.117 120.185,25.443 0.786,0.181 0.771,0.215 0.752,0.239 0.741,0.269 0.723,0.297 0.707,0.327 0.688,0.346 0.673,0.376 0.654,0.4 0.635,0.425 0.619,0.444 0.596,0.468 0.575,0.493 0.557,0.513 0.537,0.532 0.512,0.547 0.493,0.571 0.469,0.585 0.448,0.605 0.425,0.62 0.396,0.639 0.376,0.649 0.351,0.664 0.327,0.678 0.298,0.693 0.273,0.703 0.244,0.713 0.22,0.727 0.19,0.737 0.161,0.741 0.136,0.751 0.103,0.762 0.073,0.766 0.049,0.771 0.01,0.776 -0.015,0.781 -0.049,0.786 -0.082,0.79 -0.113,0.791 -0.146,0.795 -0.897,4.324 -0.884,4.216 -0.873,4.108 -0.863,3.997 -0.854,3.884 -0.839,3.782 -0.834,3.665 -0.82,3.563 -0.811,3.45 -0.795,3.337 -0.791,3.23 -0.775,3.124 -0.766,3.011 -0.752,2.904 -0.747,2.795 -0.731,2.684 -0.723,2.572 -0.713,2.469 -0.697,2.352 -0.693,2.25 -0.678,2.132 -0.669,2.03 -0.653,1.918 -0.649,1.811 -0.635,1.698 -0.624,1.591 -0.61,1.479 -0.604,1.371 -0.591,1.259 -0.581,1.151 -0.57,1.044 -0.562,0.932 -0.546,0.825 -0.537,0.712 -0.527,0.605 -0.518,0.498 -0.502,0.385 -0.493,0.278 -0.483,0.166 -0.473,0.059 -0.503,0 -0.541,-0.01 -0.576,-0.009 -0.615,-0.02 -0.653,-0.03 -0.688,-0.029 -0.728,-0.039 -0.761,-0.044 -0.801,-0.054 -0.839,-0.054 -0.874,-0.068 -0.912,-0.068 -0.946,-0.078 -0.986,-0.083 -1.02,-0.088 -1.063,-0.097 -1.094,-0.103 -1.137,-0.108 -1.171,-0.117 -1.206,-0.117 -1.244,-0.132 -1.283,-0.132 -1.317,-0.141 -1.357,-0.146 -1.395,-0.151 -1.431,-0.161 -1.469,-0.166 -1.503,-0.175 -1.542,-0.176 -1.581,-0.186 -1.615,-0.19 -1.649,-0.2 -1.692,-0.206 -1.728,-0.209 -1.763,-0.22 -1.8,-0.219 -1.84,-0.23 -1.874,-0.239 -1.913,-0.244 -1.951,-0.25 -1.864,-0.278 -1.835,-0.352 -1.801,-0.424 -1.771,-0.493 -1.737,-0.561 -1.703,-0.63 -1.669,-0.693 -1.625,-0.756 -1.591,-0.815 -1.552,-0.878 -1.508,-0.937 -1.464,-0.991 -1.42,-1.049 -1.376,-1.098 -1.327,-1.152 -1.284,-1.201 -1.229,-1.249 -1.181,-1.293 -1.132,-1.337 -1.073,-1.381 -1.025,-1.419 -0.966,-1.459 -0.908,-1.499 -0.854,-1.532 -0.791,-1.566 -0.731,-1.601 -0.669,-1.63 -0.604,-1.659 -0.537,-1.683 -0.478,-1.708 -0.405,-1.737 -0.337,-1.752 -0.269,-1.776 -0.2,-1.796 -0.122,-1.81 -0.054,-1.825 0.024,-1.839 0.103,-1.85 0.176,-1.859 0.259,-1.864 6.07,-38.219 84.553,27.966 4.88,-21.164 -107.842,-27.17 -0.355,-0.083 -0.361,-0.068 -0.356,-0.054 -0.356,-0.034 -0.356,-0.025 -0.355,-0.009 -0.352,0.004 -0.352,0.02 -0.346,0.035 -0.347,0.048 -0.342,0.059 -0.337,0.074 -0.337,0.083 -0.326,0.103 -0.327,0.107 -0.322,0.126 -0.313,0.137 -0.313,0.146 -0.302,0.156 -0.298,0.171 -0.288,0.186 -0.283,0.19 -0.278,0.205 -0.268,0.215 -0.259,0.224 -0.254,0.234 -0.239,0.244 -0.234,0.254 -0.225,0.264 -0.215,0.273 -0.205,0.283 -0.189,0.292 -0.186,0.298 -0.171,0.308 -0.156,0.317 -0.146,0.327 -0.137,0.332 -0.122,0.342 -0.112,0.347 -0.093,0.356 -59.255,238.241 -0.098,0.367 -0.122,0.355 -0.137,0.338 -0.156,0.326 -0.171,0.313 -0.186,0.297 -0.2,0.289 -0.215,0.268 -0.225,0.26 -0.238,0.238 -0.254,0.229 -0.259,0.215 -0.273,0.195 -0.278,0.182 -0.287,0.17 -0.298,0.152 -0.308,0.135 -0.308,0.117 -0.317,0.104 -0.322,0.088 -0.321,0.072 -0.327,0.055 -0.332,0.039 -0.332,0.02 -0.336,0 -0.332,-0.016 -0.332,-0.029 -0.332,-0.049 -0.332,-0.066 -0.326,-0.09 -0.322,-0.102 -0.322,-0.123 -0.313,-0.141 -0.313,-0.16 -0.302,-0.182 -0.293,-0.195 -0.288,-0.219 -0.283,-0.24 -0.269,-0.252 -0.258,-0.279 -40.532,-45.785 11.37,-30.46 17.479,27.293 0.298,0.438 0.322,0.411 0.331,0.38 0.356,0.356 0.366,0.327 0.381,0.303 0.395,0.268 0.405,0.249 0.415,0.22 0.424,0.19 0.435,0.167 0.444,0.141 0.444,0.117 0.448,0.088 0.454,0.063 0.459,0.039 0.454,0.01 0.458,-0.01 0.454,-0.034 0.449,-0.063 0.448,-0.083 0.444,-0.112 0.435,-0.132 0.429,-0.156 0.42,-0.181 0.41,-0.205 0.4,-0.229 0.385,-0.249 0.376,-0.273 0.356,-0.298 0.342,-0.317 0.327,-0.337 0.307,-0.366 0.283,-0.38 0.269,-0.405 0.244,-0.43 0.225,-0.449 0.195,-0.468 0.171,-0.488 0.146,-0.512 51.945,-206.167 0.156,-0.585 0.186,-0.576 0.2,-0.566 0.224,-0.551 0.244,-0.542 0.264,-0.527 0.283,-0.512 0.298,-0.498 0.316,-0.488 0.337,-0.469 0.354,-0.459 0.366,-0.444 0.386,-0.425 0.395,-0.41 0.415,-0.396 0.43,-0.38 0.439,-0.361 0.453,-0.346 0.464,-0.327 0.479,-0.313 0.487,-0.288 0.498,-0.273 0.513,-0.259 0.517,-0.234 0.527,-0.22 0.537,-0.195 0.546,-0.175 0.552,-0.156 0.557,-0.137 0.565,-0.117 0.571,-0.093 0.576,-0.073 0.58,-0.049 0.586,-0.024 0.586,-0.005 0.595,0.02 0.59,0.038 z m 52.17,55.24 -1.02,0.107 -1.006,0.142 -0.995,0.186 -0.981,0.22 -0.961,0.259 -0.951,0.298 -0.932,0.332 -0.918,0.366 -0.898,0.4 -0.878,0.434 -0.864,0.469 -0.839,0.498 -0.815,0.532 -0.795,0.561 -0.775,0.585 -0.747,0.62 -0.728,0.648 -0.697,0.674 -0.674,0.698 -0.648,0.727 -0.62,0.746 -0.586,0.771 -0.561,0.8 -0.532,0.815 -0.498,0.839 -0.468,0.859 -0.435,0.883 -0.4,0.898 -0.366,0.917 -0.331,0.932 -0.298,0.947 -0.259,0.966 -0.22,0.98 -0.186,0.996 -0.141,1.006 -0.108,1.02 -0.058,1.029 -0.025,1.044 0.025,1.04 0.058,1.035 0.108,1.02 0.141,1.005 0.186,0.995 0.22,0.981 0.259,0.961 0.298,0.952 0.331,0.932 0.366,0.917 0.4,0.898 0.435,0.878 0.468,0.863 0.498,0.84 0.532,0.815 0.561,0.795 0.586,0.776 0.62,0.747 0.648,0.727 0.674,0.698 0.697,0.673 0.728,0.649 0.747,0.615 0.775,0.59 0.795,0.562 0.815,0.532 0.839,0.498 0.864,0.468 0.878,0.435 0.898,0.399 0.918,0.366 0.932,0.332 0.951,0.297 0.961,0.259 0.981,0.22 0.995,0.186 1.006,0.142 1.02,0.102 1.034,0.063 1.04,0.024 1.039,-0.024 1.034,-0.063 1.021,-0.102 1.005,-0.142 0.996,-0.186 0.98,-0.22 0.961,-0.259 0.952,-0.297 0.932,-0.332 0.918,-0.366 0.897,-0.399 0.878,-0.435 0.864,-0.468 0.839,-0.498 0.815,-0.532 0.795,-0.562 0.776,-0.59 0.746,-0.615 0.728,-0.649 0.697,-0.673 0.674,-0.698 0.648,-0.727 0.62,-0.747 0.586,-0.776 0.561,-0.795 0.532,-0.815 0.498,-0.84 0.469,-0.863 0.434,-0.878 0.4,-0.898 0.366,-0.917 0.332,-0.932 0.297,-0.952 0.259,-0.961 0.22,-0.981 0.186,-0.995 0.142,-1.005 0.107,-1.02 0.058,-1.035 0.025,-1.04 -0.025,-1.044 -0.058,-1.029 -0.107,-1.02 -0.142,-1.006 -0.186,-0.996 -0.22,-0.98 -0.259,-0.966 -0.297,-0.947 -0.332,-0.932 -0.366,-0.917 -0.4,-0.898 -0.434,-0.883 -0.469,-0.859 -0.498,-0.839 -0.532,-0.815 -0.561,-0.8 -0.586,-0.771 -0.62,-0.746 -0.648,-0.727 -0.674,-0.698 -0.697,-0.674 -0.728,-0.648 -0.746,-0.62 -0.776,-0.585 -0.795,-0.561 -0.815,-0.532 -0.839,-0.498 -0.864,-0.469 -0.878,-0.434 -0.897,-0.4 -0.918,-0.366 -0.932,-0.332 -0.952,-0.298 -0.961,-0.259 -0.98,-0.22 -0.996,-0.186 -1.005,-0.142 -1.021,-0.107 -1.034,-0.059 -1.039,-0.024 -1.04,0.024 -1.034,0.059 z"
       inkscape:connector-curvature="0"
       style="fill-opacity:0;stroke:#646464;stroke-width:4;stroke-miterlimit:4;stroke-dasharray:none" /></g><text
     id="text49"
     x="-6.265625"
     y="354.20062"
     style="stroke:#404040;stroke-width:2;stroke-miterlimit:4;stroke-dasharray:none;stroke-opacity:1"><tspan
       x="-6.265625"
       y="354.20062"
       font-size="90"
       id="tspan51"
       style="font-style:normal;font-variant:normal;font-weight:normal;font-stretch:normal;font-size:80px;font-family:Courier;-inkscape-font-specification:Courier;fill:#ffde57;stroke:#404040;stroke-width:2;stroke-miterlimit:4;stroke-dasharray:none;stroke-opacity:1">py</tspan><tspan
       x="87.332375"
       y="354.20062"
       font-size="90"
       id="tspan53"
       style="font-style:normal;font-variant:normal;font-weight:normal;font-stretch:normal;font-size:80px;font-family:Courier;-inkscape-font-specification:Courier;fill:#4584b6;stroke:#404040;stroke-width:2;stroke-miterlimit:4;stroke-dasharray:none;stroke-opacity:1">FUZZY </tspan><tspan
       x="337.61938"
       y="354.20062"
       font-size="90"
       id="tspan55"
       style="font-style:normal;font-variant:normal;font-weight:normal;font-stretch:normal;font-size:80px;font-family:Courier;-inkscape-font-specification:Courier;fill:#ffde57;stroke:#404040;stroke-width:2;stroke-miterlimit:4;stroke-dasharray:none;stroke-opacity:1">generator</tspan></text>
</svg>